<?xml version="1.0" encoding="iso-8859-1"?>
<!-- Generator: Adobe Illustrator 19.0.0, SVG Export Plug-In . SVG Version: 6.00 Build 0)  -->
<svg version="1.1" id="Layer_1" xmlns="http://www.w3.org/2000/svg" xmlns:xlink="http://www.w3.org/1999/xlink" x="0px" y="0px"
	 viewBox="0 0 485 485" style="enable-background:new 0 0 485 485;" xml:space="preserve">
<g>
	<g>
		<path style="fill:#846954;" d="M352.5,7.5v135l-90-40c-59.6,53.3-130,40-130,40v-55c0,0,15.6-80,110-80H352.5z"/>
		<path style="fill:#F4661E;" d="M257.5,362.5l25,60l-30,55h-20l-30-55l25-60l0.5-2.1c4.5,1.3,9.4,2.1,14.5,2.1s10-0.8,14.5-2.1
			L257.5,362.5z"/>
		<path style="fill:#E7ECED;" d="M337.5,367.5c0,0-0.6,79.1-75,110h-10l30-55l-25-60l-0.5-2.1c21.5-5.9,35.5-22.9,35.5-22.9
			C303.4,349.7,337.5,367.5,337.5,367.5z"/>
		<path style="fill:#E7ECED;" d="M202.5,422.5l30,55h-10c-74.4-30.9-75-110-75-110s34.1-17.8,45-30c0,0,14,17,35.5,22.9l-0.5,2.1
			L202.5,422.5z"/>
		<path style="fill:#545253;" d="M337.5,367.5l45,60l-40,20l25,30h-105C336.9,446.6,337.5,367.5,337.5,367.5z"/>
		<path style="fill:#545253;" d="M222.5,477.5h-105l25-30l-40-20l45-60C147.5,367.5,148.1,446.6,222.5,477.5z"/>
		<path style="fill:#373738;" d="M432.5,452.5c0,0,0,11,0,25h-65l-25-30l40-20l-45-60C432.2,397.5,432.5,452.5,432.5,452.5z"/>
		<path style="fill:#FFD7A3;" d="M352.5,167.5c16.6,0,30,6.2,30,20c0,12.8-15.8,27.6-31.3,29.7c0.9-6.4,1.3-13,1.3-19.7V167.5z"/>
		<path style="fill:#FFE1B2;" d="M351.2,217.2c-5.4,39.1-26.6,71.9-58.7,88.5c-14.6,7.6-31.4,11.8-50,11.8s-35.4-4.2-50-11.8
			c-32.1-16.6-53.3-49.4-58.7-88.5c-0.9-6.4-1.3-13-1.3-19.7v-30v-25c0,0,70.4,13.3,130-40l90,40v25v30
			C352.5,204.2,352.1,210.8,351.2,217.2z"/>
		<path style="fill:#FFD7A3;" d="M292.5,305.7v31.8c0,0-14,17-35.5,22.9c-4.5,1.3-9.4,2.1-14.5,2.1s-10-0.8-14.5-2.1
			c-21.5-5.9-35.5-22.9-35.5-22.9v-31.8c14.6,7.6,31.4,11.8,50,11.8S277.9,313.3,292.5,305.7z"/>
		<path style="fill:#373738;" d="M147.5,367.5l-45,60l40,20l-25,30h-65c0-14,0-25,0-25S53.4,397.8,147.5,367.5z"/>
		<path style="fill:#FFD7A3;" d="M132.5,197.5c0,6.7,0.4,13.3,1.3,19.7c-15.5-2.1-31.3-16.9-31.3-29.7c0-13.8,13.4-20,30-20V197.5z"
			/>
	</g>
	<g>
		<path style="fill:#231F20;" d="M342.077,361.103l-11.982-6.248c-10.216-5.869-23.337-14.034-30.096-20.413v-24.299
			c30.386-17.373,51.164-48.543,57.804-86.696C375.018,218.517,390,202.361,390,187.5c0-15.043-11.308-25.026-30-27.094V0H242.5
			c-51.778,0-80.947,23.313-96.299,42.869c-16.625,21.178-20.889,42.306-21.062,43.195L125,86.775v73.63
			c-18.692,2.068-30,12.051-30,27.094c0,14.861,14.983,31.017,32.196,35.946c6.647,38.168,27.428,69.337,57.804,86.697v24.299
			c-6.758,6.379-19.879,14.545-30.096,20.413l-11.993,6.263c-95.818,31.741-97.87,88.825-97.91,91.258L45,485h395v-32.541
			C439.986,450.01,438.545,392.564,342.077,361.103z M242.5,325c15.079,0,29.324-2.595,42.5-7.701v17.314
			c-4.05,4.23-15.027,14.45-29.984,18.554l-0.098,0.027c-8.29,2.396-16.544,2.396-24.836,0l-0.097-0.027
			c-14.845-4.074-25.912-14.342-29.985-18.569v-17.3C213.182,322.406,227.424,325,242.5,325z M292.746,348.033
			c11.123,9.32,28.684,19.299,36.979,23.814c-1.423,15.728-10.157,69.547-63.195,95.594l24.276-44.506l-24.135-57.924
			C278.359,360.269,287.383,353.067,292.746,348.033z M218.329,365.01l-24.135,57.924l24.264,44.484
			c-25.135-12.297-43.359-32.026-54.19-58.784c-6.388-15.783-8.376-29.916-8.992-36.787c8.295-4.515,25.856-14.494,36.979-23.814
			C197.617,353.067,206.641,360.269,218.329,365.01z M150.136,413.697c9.319,23.309,24.131,42.387,43.497,56.303h-60.12
			l20.811-24.973l-40.432-20.216l28.398-37.864C143.76,394.53,146.174,403.786,150.136,413.697z M210.806,422.065l22.037-52.89
			c6.427,1.075,12.886,1.075,19.313,0l22.038,52.89L248.048,470h-11.096L210.806,422.065z M334.864,413.697
			c3.962-9.911,6.376-19.167,7.846-26.75l28.398,37.864l-40.433,20.216L351.487,470h-60.119
			C310.734,456.084,325.546,437.005,334.864,413.697z M375,187.5c0,6.126-6.627,14.467-15.266,19.07
			c0.165-2.964,0.266-31.088,0.266-31.088C373.367,177.356,375,184.268,375,187.5z M158.393,51.634
			C177.733,27.326,206.031,15,242.5,15H345v115.959l-83.885-37.282L257.5,96.91c-23.427,20.951-51.277,33.758-82.775,38.067
			c-15.265,2.088-27.736,1.561-34.725,0.914V88.323C140.812,84.895,145.29,68.102,158.393,51.634z M110,187.5
			c0-3.232,1.633-10.144,15-12.018c0,0,0.101,28.125,0.266,31.088C116.627,201.966,110,193.626,110,187.5z M141.227,216.156
			C140.413,210.366,140,204.09,140,197.5v-46.539c7.946,0.659,20.691,1.018,36.141-1.04c22.992-3.063,56.486-12.286,87.676-38.629
			L345,147.374V197.5c0,6.586-0.413,12.863-1.229,18.674c-5.158,37.347-25.102,67.549-54.733,82.874
			C275.075,306.315,259.418,310,242.5,310c-16.917,0-32.575-3.685-46.555-10.962C166.331,283.724,146.388,253.521,141.227,216.156z
			 M60,452.591c0.05-1.362,2.267-40.654,66.007-68.934l-34.899,46.532l39.568,19.784L113.987,470H60V452.591z M425,470h-53.987
			l-16.689-20.027l39.567-19.784l-35.002-46.67c20.281,8.916,41.456,22.057,54.743,40.966
			c10.718,15.254,11.344,27.458,11.368,28.096V470z"/>
		<path style="fill:#231F20;" d="M242.5,235h20v-15H250v-32.5h-15v40C235,231.642,238.358,235,242.5,235z"/>
	</g>
</g>
<g>
</g>
<g>
</g>
<g>
</g>
<g>
</g>
<g>
</g>
<g>
</g>
<g>
</g>
<g>
</g>
<g>
</g>
<g>
</g>
<g>
</g>
<g>
</g>
<g>
</g>
<g>
</g>
<g>
</g>
</svg>
